<svg width="1200" height="800" viewBox="0 0 1200 800" fill="none" xmlns="http://www.w3.org/2000/svg" role="img" aria-label="Business strategy placeholder">
  <defs>
    <linearGradient id="bg" x1="0" y1="0" x2="1200" y2="800" gradientUnits="userSpaceOnUse">
      <stop stop-color="#0B1B38"/>
      <stop offset="1" stop-color="#1E4BD8"/>
    </linearGradient>
  </defs>
  <rect width="1200" height="800" fill="url(#bg)"/>
  <circle cx="940" cy="180" r="130" fill="#4F46E5" opacity="0.35"/>
  <circle cx="220" cy="690" r="160" fill="#14B8A6" opacity="0.25"/>
  <rect x="150" y="120" width="900" height="560" rx="28" fill="#FFFFFF" fill-opacity="0.1" stroke="#FFFFFF" stroke-opacity="0.18"/>
  <rect x="210" y="220" width="240" height="20" rx="10" fill="#A5B4FC"/>
  <rect x="210" y="270" width="510" height="14" rx="7" fill="#BFDBFE" fill-opacity="0.9"/>
  <rect x="210" y="300" width="460" height="14" rx="7" fill="#BFDBFE" fill-opacity="0.6"/>
  <rect x="210" y="330" width="350" height="14" rx="7" fill="#BFDBFE" fill-opacity="0.45"/>
  <rect x="210" y="390" width="740" height="190" rx="16" fill="#0B1B38" fill-opacity="0.45"/>
  <polyline points="260,530 390,470 510,500 640,430 760,450 900,390" stroke="#34D399" stroke-width="8" stroke-linecap="round" stroke-linejoin="round"/>
  <circle cx="260" cy="530" r="9" fill="#34D399"/>
  <circle cx="390" cy="470" r="9" fill="#34D399"/>
  <circle cx="510" cy="500" r="9" fill="#34D399"/>
  <circle cx="640" cy="430" r="9" fill="#34D399"/>
  <circle cx="760" cy="450" r="9" fill="#34D399"/>
  <circle cx="900" cy="390" r="9" fill="#34D399"/>
  <text x="210" y="190" fill="#E2E8F0" font-family="Arial, sans-serif" font-size="30" font-weight="700">BUSINESS STRATEGY</text>
</svg>
