<svg width="1200" height="800" viewBox="0 0 1200 800" fill="none" xmlns="http://www.w3.org/2000/svg" role="img" aria-label="Digital transformation placeholder">
  <defs>
    <linearGradient id="bg2" x1="100" y1="0" x2="1100" y2="820" gradientUnits="userSpaceOnUse">
      <stop stop-color="#061327"/>
      <stop offset="1" stop-color="#0F766E"/>
    </linearGradient>
  </defs>
  <rect width="1200" height="800" fill="url(#bg2)"/>
  <rect x="120" y="80" width="960" height="640" rx="36" fill="#FFFFFF" fill-opacity="0.09"/>
  <rect x="190" y="150" width="360" height="40" rx="12" fill="#2DD4BF" fill-opacity="0.85"/>
  <rect x="190" y="210" width="500" height="16" rx="8" fill="#99F6E4" fill-opacity="0.85"/>
  <rect x="190" y="242" width="420" height="16" rx="8" fill="#99F6E4" fill-opacity="0.6"/>
  <rect x="190" y="274" width="320" height="16" rx="8" fill="#99F6E4" fill-opacity="0.42"/>
  <rect x="190" y="340" width="340" height="280" rx="20" fill="#0B1220" fill-opacity="0.55"/>
  <rect x="570" y="340" width="440" height="120" rx="20" fill="#0B1220" fill-opacity="0.55"/>
  <rect x="570" y="500" width="210" height="120" rx="20" fill="#0B1220" fill-opacity="0.55"/>
  <rect x="800" y="500" width="210" height="120" rx="20" fill="#0B1220" fill-opacity="0.55"/>
  <path d="M240 500H480" stroke="#A7F3D0" stroke-width="10" stroke-linecap="round"/>
  <path d="M240 540H420" stroke="#A7F3D0" stroke-width="10" stroke-linecap="round" opacity="0.75"/>
  <path d="M640 390H940" stroke="#5EEAD4" stroke-width="10" stroke-linecap="round"/>
  <circle cx="625" cy="390" r="13" fill="#5EEAD4"/>
  <circle cx="955" cy="390" r="13" fill="#5EEAD4"/>
  <text x="190" y="135" fill="#CCFBF1" font-family="Arial, sans-serif" font-size="28" font-weight="700">DIGITAL TRANSFORMATION</text>
</svg>
